<svg width="38" height="38" viewBox="0 0 38 38" fill="none" xmlns="http://www.w3.org/2000/svg">
<rect width="38" height="38" rx="6" fill="#7367F0"/>
<path d="M25.525 15.775L17.275 24.025C17.125 24.175 16.975 24.25 16.75 24.25C16.525 24.25 16.375 24.175 16.225 24.025L12.475 20.275C12.175 19.975 12.175 19.525 12.475 19.225C12.775 18.925 13.225 18.925 13.525 19.225L16.75 22.45L24.475 14.725C24.775 14.425 25.225 14.425 25.525 14.725C25.825 15.025 25.825 15.475 25.525 15.775Z" fill="black"/>
<mask id="mask0_311_2087" style="mask-type:alpha" maskUnits="userSpaceOnUse" x="12" y="14" width="14" height="11">
<path d="M25.525 15.775L17.275 24.025C17.125 24.175 16.975 24.25 16.75 24.25C16.525 24.25 16.375 24.175 16.225 24.025L12.475 20.275C12.175 19.975 12.175 19.525 12.475 19.225C12.775 18.925 13.225 18.925 13.525 19.225L16.75 22.45L24.475 14.725C24.775 14.425 25.225 14.425 25.525 14.725C25.825 15.025 25.825 15.475 25.525 15.775Z" fill="white"/>
</mask>
<g mask="url(#mask0_311_2087)">
<rect x="10" y="10" width="18" height="18" fill="white"/>
</g>
</svg>
