<svg width="38" height="38" viewBox="0 0 38 38" fill="none" xmlns="http://www.w3.org/2000/svg">
<rect width="38" height="38" rx="6" fill="#7367F0"/>
<path fill-rule="evenodd" clip-rule="evenodd" d="M25.6 15.5875C25.6187 15.625 25.6375 15.6625 25.675 15.7C25.75 15.775 25.75 15.925 25.75 16V25C25.75 26.275 24.775 27.25 23.5 27.25H14.5C13.225 27.25 12.25 26.275 12.25 25V13C12.25 11.725 13.225 10.75 14.5 10.75H20.5C20.575 10.75 20.725 10.75 20.8 10.825C20.875 10.825 20.95 10.9 21.025 10.975L25.525 15.475C25.5625 15.5125 25.5813 15.55 25.6 15.5875ZM23.2 15.25L21.25 13.3V15.25H23.2ZM23.5 25.75H14.5C14.05 25.75 13.75 25.45 13.75 25V13C13.75 12.55 14.05 12.25 14.5 12.25H19.75V16C19.75 16.45 20.05 16.75 20.5 16.75H24.25V25C24.25 25.45 23.95 25.75 23.5 25.75ZM22 20.5C22.45 20.5 22.75 20.2 22.75 19.75C22.75 19.3 22.45 19 22 19H16C15.55 19 15.25 19.3 15.25 19.75C15.25 20.2 15.55 20.5 16 20.5H22ZM22.75 22.75C22.75 23.2 22.45 23.5 22 23.5H16C15.55 23.5 15.25 23.2 15.25 22.75C15.25 22.3 15.55 22 16 22H22C22.45 22 22.75 22.3 22.75 22.75ZM16 16C15.55 16 15.25 16.3 15.25 16.75C15.25 17.2 15.55 17.5 16 17.5H17.5C17.95 17.5 18.25 17.2 18.25 16.75C18.25 16.3 17.95 16 17.5 16H16Z" fill="black"/>
<mask id="mask0_299_4941" style="mask-type:alpha" maskUnits="userSpaceOnUse" x="12" y="10" width="14" height="18">
<path fill-rule="evenodd" clip-rule="evenodd" d="M25.6 15.5875C25.6187 15.625 25.6375 15.6625 25.675 15.7C25.75 15.775 25.75 15.925 25.75 16V25C25.75 26.275 24.775 27.25 23.5 27.25H14.5C13.225 27.25 12.25 26.275 12.25 25V13C12.25 11.725 13.225 10.75 14.5 10.75H20.5C20.575 10.75 20.725 10.75 20.8 10.825C20.875 10.825 20.95 10.9 21.025 10.975L25.525 15.475C25.5625 15.5125 25.5813 15.55 25.6 15.5875ZM23.2 15.25L21.25 13.3V15.25H23.2ZM23.5 25.75H14.5C14.05 25.75 13.75 25.45 13.75 25V13C13.75 12.55 14.05 12.25 14.5 12.25H19.75V16C19.75 16.45 20.05 16.75 20.5 16.75H24.25V25C24.25 25.45 23.95 25.75 23.5 25.75ZM22 20.5C22.45 20.5 22.75 20.2 22.75 19.75C22.75 19.3 22.45 19 22 19H16C15.55 19 15.25 19.3 15.25 19.75C15.25 20.2 15.55 20.5 16 20.5H22ZM22.75 22.75C22.75 23.2 22.45 23.5 22 23.5H16C15.55 23.5 15.25 23.2 15.25 22.75C15.25 22.3 15.55 22 16 22H22C22.45 22 22.75 22.3 22.75 22.75ZM16 16C15.55 16 15.25 16.3 15.25 16.75C15.25 17.2 15.55 17.5 16 17.5H17.5C17.95 17.5 18.25 17.2 18.25 16.75C18.25 16.3 17.95 16 17.5 16H16Z" fill="white"/>
</mask>
<g mask="url(#mask0_299_4941)">
<rect x="10" y="10" width="18" height="18" fill="white"/>
</g>
</svg>
