<svg width="38" height="38" viewBox="0 0 38 38" fill="none" xmlns="http://www.w3.org/2000/svg">
<rect width="38" height="38" rx="6" fill="#BABFC7" fill-opacity="0.12"/>
<path fill-rule="evenodd" clip-rule="evenodd" d="M19.975 10.4496L25.975 13.4496C26.8 13.8246 27.25 14.5746 27.25 15.3996V22.5246C27.25 23.4246 26.725 24.1746 25.975 24.5496L19.975 27.5496C19.675 27.6996 19.375 27.7746 19 27.7746C18.7 27.7746 18.325 27.6996 18.025 27.5496L12.025 24.5496C11.2 24.1746 10.75 23.3496 10.75 22.5246V15.3996C10.75 14.5746 11.2 13.8246 11.95 13.4496L17.95 10.4496C18.625 10.1496 19.375 10.1496 19.975 10.4496ZM19 11.6496C18.925 11.6496 18.775 11.6496 18.7 11.7246L13.15 14.4996L19 17.4246L24.85 14.4996L19.3 11.7246C19.225 11.6496 19.15 11.6496 19 11.6496ZM12.625 23.2746C12.4 23.1246 12.25 22.8246 12.25 22.5996V15.6996L18.25 18.6996V26.0496L12.625 23.2746ZM19.75 26.0496L25.3 23.2746C25.6 23.1246 25.75 22.8996 25.75 22.5996V15.6996L19.75 18.6996V26.0496Z" fill="black"/>
<mask id="mask0_299_4948" style="mask-type:alpha" maskUnits="userSpaceOnUse" x="10" y="10" width="18" height="18">
<path fill-rule="evenodd" clip-rule="evenodd" d="M19.975 10.4496L25.975 13.4496C26.8 13.8246 27.25 14.5746 27.25 15.3996V22.5246C27.25 23.4246 26.725 24.1746 25.975 24.5496L19.975 27.5496C19.675 27.6996 19.375 27.7746 19 27.7746C18.7 27.7746 18.325 27.6996 18.025 27.5496L12.025 24.5496C11.2 24.1746 10.75 23.3496 10.75 22.5246V15.3996C10.75 14.5746 11.2 13.8246 11.95 13.4496L17.95 10.4496C18.625 10.1496 19.375 10.1496 19.975 10.4496ZM19 11.6496C18.925 11.6496 18.775 11.6496 18.7 11.7246L13.15 14.4996L19 17.4246L24.85 14.4996L19.3 11.7246C19.225 11.6496 19.15 11.6496 19 11.6496ZM12.625 23.2746C12.4 23.1246 12.25 22.8246 12.25 22.5996V15.6996L18.25 18.6996V26.0496L12.625 23.2746ZM19.75 26.0496L25.3 23.2746C25.6 23.1246 25.75 22.8996 25.75 22.5996V15.6996L19.75 18.6996V26.0496Z" fill="white"/>
</mask>
<g mask="url(#mask0_299_4948)">
<rect x="10" y="10" width="18" height="18" fill="#5E5873"/>
</g>
</svg>
