<svg width="131" height="117" viewBox="0 0 131 117" fill="none" xmlns="http://www.w3.org/2000/svg">
<path d="M70.0476 54.4345C69.2086 52.8725 70.2155 50.2945 70.7785 48.9255C72.0485 46.0065 73.5566 43.1975 75.2886 40.5265C80.1936 32.4887 85.4766 24.1066 93.6906 19.3612C97.1596 17.3623 101.561 16.3796 105.307 18.5213C110.993 21.7213 111.295 29.6918 108.927 34.9327C107.989 37.1078 106.691 39.1095 105.089 40.8535C102.426 43.5415 99.0246 45.2125 95.6476 46.7755C92.0776 48.5375 88.3696 50.0065 84.5616 51.1675C82.2016 51.8225 79.8156 52.3685 77.4306 52.8975C76.7416 53.0495 70.2156 54.7875 70.0476 54.4765" fill="#F1B1E0"/>
<path d="M75.9259 55.1906C72.3649 55.6446 69.3999 50.0176 67.8879 47.5226C64.9969 42.4836 62.5999 37.1755 60.7319 31.6741C58.4809 25.4253 57.6499 17.9755 59.7999 11.8191C62.4119 4.35247 69.6349 -2.20703 77.9999 0.707372C80.1079 1.40837 82.0309 2.57377 83.6269 4.11737C87.6339 8.53517 88.0959 14.7587 87.6929 20.3272C87.1549 27.7854 84.7279 34.4121 82.1659 41.2736C81.2839 43.6176 80.3599 45.9356 79.3359 48.2026C78.8059 49.3876 78.2439 50.5546 77.6559 51.7226C77.4289 52.1846 76.3119 55.1656 75.8749 55.2246" fill="#F1B1E0"/>
<path d="M42.8593 41.7945C43.0933 41.4785 43.2183 41.0955 43.2183 40.7025C43.2183 40.3095 43.0933 39.9275 42.8593 39.6105C40.7013 36.4781 35.3843 28.0373 36.2333 22.1833C36.6273 19.462 38.4253 17.5807 41.5663 16.5812L40.5243 13.4568C36.5103 14.7334 34.2003 17.3119 33.6463 21.125C32.5883 28.4068 38.5343 37.9225 40.9703 41.4335C41.4993 42.1975 42.3723 42.3575 42.8853 41.7945" fill="#191411"/>
<path d="M49.0506 13.9105C48.2106 10.8953 44.7756 9.07266 41.3496 9.82856C37.9226 10.5845 35.8226 13.6501 36.6546 16.6569C37.4856 19.6637 40.9376 21.4947 44.3556 20.7388C47.7746 19.9829 49.8826 16.9173 49.0506 13.9105Z" fill="#191411"/>
<path d="M1.87991 73.6196C7.75991 94.3226 27.9169 116.571 63.1919 116.529C110.965 116.454 130.778 74.9206 130.778 74.9206C130.778 74.9206 103.515 95.5826 66.1069 38.7306C46.9489 9.61143 -11.0791 28.0385 1.8639 73.6196" fill="#FAFA08"/>
<mask id="mask0_135_902" style="mask-type:alpha" maskUnits="userSpaceOnUse" x="0" y="24" width="131" height="93">
<path d="M1.87991 73.6196C7.75991 94.3226 27.9169 116.571 63.1919 116.529C110.965 116.454 130.778 74.9206 130.778 74.9206C130.778 74.9206 103.515 95.5826 66.1069 38.7306C46.9489 9.61143 -11.0791 28.0385 1.8639 73.6196" fill="#FFFF66"/>
</mask>
<g mask="url(#mask0_135_902)">
<path d="M72.7371 48.3806C56.8311 82.2446 22.3111 89.0176 7.03906 88.1716C7.03906 88.1716 10.4411 92.6996 12.6581 95.3676C14.8451 97.9976 18.7091 101.294 18.7091 101.294C57.7821 98.9226 76.3391 71.9446 80.9491 58.5396L72.7371 48.3806Z" fill="black" stroke="black"/>
<path d="M90.663 66.0186C73.203 103.205 45.411 111.633 33.916 111.199C40.551 113.979 55.305 115.833 61.853 116.412C78.965 108.071 94.738 83.3956 100.267 72.1006C96.426 71.0576 92.264 67.6116 90.663 66.0186Z" fill="black" stroke="black"/>
<path d="M111.302 62.6897C104.343 103.178 79.7868 118.684 68.5898 121.317C75.7248 122.236 90.4418 120.105 96.9078 118.924C111.191 106.339 119.844 78.3607 122.176 66.0027C118.195 66.0177 113.268 63.7997 111.302 62.6897Z" fill="black" stroke="black"/>
<path d="M13.8597 54.0986C17.8025 54.0986 20.9988 50.9024 20.9988 46.9596C20.9988 43.0168 17.8025 39.8206 13.8597 39.8206C9.91696 39.8206 6.7207 43.0168 6.7207 46.9596C6.7207 50.9024 9.91696 54.0986 13.8597 54.0986Z" fill="black"/>
<path d="M12.5997 47.3803C13.5274 47.3803 14.2795 46.6282 14.2795 45.7005C14.2795 44.7728 13.5274 44.0208 12.5997 44.0208C11.672 44.0208 10.9199 44.7728 10.9199 45.7005C10.9199 46.6282 11.672 47.3803 12.5997 47.3803Z" fill="white"/>
<path d="M10.2115 60.8186C10.2115 60.8186 3.7445 76.4016 -6.6875 63.3036C-6.6875 63.3036 1.9315 71.2276 10.2115 60.8186Z" fill="black"/>
<path d="M33.294 43.1045C33.448 42.7435 33.481 42.3425 33.389 41.9615C33.296 41.5805 33.084 41.2385 32.782 40.9885C29.976 38.4185 22.896 31.38 22.409 25.484C22.182 22.7544 23.509 20.5119 26.348 18.8321L24.626 16.0269C21.006 18.1686 19.335 21.2006 19.646 25.0389C20.259 32.3795 28.179 40.2995 31.345 43.1885C32.034 43.8105 32.924 43.7765 33.294 43.1045Z" fill="#191411"/>
</g>
</svg>
