<svg width="49" height="48" viewBox="0 0 49 48" fill="none" xmlns="http://www.w3.org/2000/svg">
<g clip-path="url(#clip0_96_6653)">
<rect width="48" height="48" rx="24" fill="#7367F0" fill-opacity="0.12"/>
<path d="M36.3203 18V24C36.3203 24.6 35.9203 25 35.3203 25C34.7203 25 34.3203 24.6 34.3203 24V20.4L26.5203 28.2C26.1203 28.6 25.5203 28.6 25.1203 28.2L20.8203 23.9L14.0203 30.7C13.8203 30.9 13.6203 31 13.3203 31C13.0203 31 12.8203 30.9 12.6203 30.7C12.2203 30.3 12.2203 29.7 12.6203 29.3L20.1203 21.8C20.5203 21.4 21.1203 21.4 21.5203 21.8L25.8203 26.1L32.9203 19H29.3203C28.7203 19 28.3203 18.6 28.3203 18C28.3203 17.4 28.7203 17 29.3203 17H35.3203C35.4203 17 35.6203 17 35.7203 17.1C35.9203 17.2 36.1203 17.4 36.2203 17.6C36.3203 17.7 36.3203 17.9 36.3203 18Z" fill="black"/>
<mask id="mask0_96_6653" style="mask-type:alpha" maskUnits="userSpaceOnUse" x="12" y="17" width="25" height="14">
<path d="M36.3203 18V24C36.3203 24.6 35.9203 25 35.3203 25C34.7203 25 34.3203 24.6 34.3203 24V20.4L26.5203 28.2C26.1203 28.6 25.5203 28.6 25.1203 28.2L20.8203 23.9L14.0203 30.7C13.8203 30.9 13.6203 31 13.3203 31C13.0203 31 12.8203 30.9 12.6203 30.7C12.2203 30.3 12.2203 29.7 12.6203 29.3L20.1203 21.8C20.5203 21.4 21.1203 21.4 21.5203 21.8L25.8203 26.1L32.9203 19H29.3203C28.7203 19 28.3203 18.6 28.3203 18C28.3203 17.4 28.7203 17 29.3203 17H35.3203C35.4203 17 35.6203 17 35.7203 17.1C35.9203 17.2 36.1203 17.4 36.2203 17.6C36.3203 17.7 36.3203 17.9 36.3203 18Z" fill="white"/>
</mask>
<g mask="url(#mask0_96_6653)">
<rect x="12.3203" y="12" width="24" height="24" fill="#7367F0"/>
</g>
</g>
<defs>
<clipPath id="clip0_96_6653">
<rect width="48" height="48" fill="white" transform="translate(0.177734)"/>
</clipPath>
</defs>
</svg>
