<svg width="296" height="179" viewBox="0 0 296 179" fill="none" xmlns="http://www.w3.org/2000/svg">
<path d="M147.729 13.9305C148.712 12.9229 150.846 13.6639 150.846 15.1633C150.846 17.3184 146.981 19.9281 146.981 19.9281C146.981 19.9281 143.119 17.3185 143.119 15.158C143.119 13.6919 145.058 12.823 146.182 13.9052C146.486 14.188 146.755 14.5095 146.981 14.8621C147.192 14.52 147.443 14.2065 147.729 13.9292" fill="#FF7979"/>
<path d="M141.221 5.7972C142.204 4.78961 144.339 5.53064 144.339 7.03003C144.339 9.18515 140.474 11.7948 140.474 11.7948C140.474 11.7948 136.611 9.18515 136.611 7.0247C136.611 5.55863 138.55 4.68965 139.674 5.77188C139.979 6.05472 140.247 6.37624 140.474 6.72882C140.684 6.38667 140.936 6.07324 141.221 5.79587" fill="#FF7979"/>
<path d="M153.425 0.509602C154.408 -0.497986 156.542 0.243044 156.542 1.74243C156.542 3.89755 152.677 6.50715 152.677 6.50715C152.677 6.50715 148.814 3.89755 148.814 1.7371C148.814 0.271034 150.753 -0.597944 151.878 0.484281C152.182 0.767122 152.45 1.08864 152.677 1.44122C152.888 1.09907 153.139 0.785646 153.425 0.50827" fill="#FF7979"/>
<path d="M145.125 39.0518L145.855 46.7758L149.902 42.5139L145.125 39.0518Z" fill="#FFF100"/>
<path d="M145.378 47.7695C141.62 61.0008 128.738 75.2198 106.194 75.1929C75.6624 75.1446 63 48.6014 63 48.6014C63 48.6014 80.4235 61.8059 104.331 25.4721C116.575 6.86235 153.666 18.639 145.394 47.7695" fill="#F1B1E0"/>
<path d="M111.207 35.2137C113.795 40.0773 110.245 46.587 101.86 48.4722C97.8118 49.6471 89.8323 47.7629 84.4307 44.5059C78.776 41.4302 75.6834 36.9788 75.6608 37.1548C79.1221 37.1185 82.5634 36.6249 85.8954 35.6871C90.987 34.3991 95.658 31.8182 97.937 31.0115C104.154 28.8066 108.898 30.8349 111.205 35.2242" fill="#8185DB"/>
<path d="M139.468 32.8369C139.468 32.8369 135.582 41.3823 129.613 34.0822C129.613 34.0822 134.568 38.5159 139.468 32.8369Z" fill="#424455"/>
<path d="M194.186 35.5092C193.649 34.5108 194.293 32.8629 194.653 31.988C195.464 30.1225 196.428 28.3271 197.535 26.6203C200.67 21.4835 204.046 16.1265 209.296 13.0938C211.513 11.8163 214.325 11.1882 216.719 12.557C220.353 14.6021 220.547 19.696 219.033 23.0454C218.433 24.4355 217.604 25.7148 216.58 26.8297C214.878 28.5473 212.704 29.6155 210.547 30.6139C208.265 31.7399 205.895 32.6788 203.461 33.4212C201.953 33.8399 200.428 34.1887 198.904 34.5269C198.464 34.6235 194.293 35.7346 194.186 35.536" fill="#F1B1E0"/>
<path d="M197.944 35.992C195.668 36.2818 193.773 32.6855 192.807 31.0913C190.959 27.8705 189.428 24.4784 188.234 20.9625C186.795 16.9689 186.264 12.2078 187.638 8.27324C189.307 3.50137 193.924 -0.690778 199.27 1.17181C200.617 1.61982 201.846 2.36457 202.866 3.35109C205.427 6.17449 205.722 10.1519 205.464 13.7107C205.121 18.4772 203.569 22.7123 201.932 27.0977C201.369 28.5953 200.778 30.0768 200.123 31.526C199.785 32.2829 199.426 33.029 199.05 33.7751C198.905 34.0703 198.191 35.9759 197.912 36.0134" fill="#F1B1E0"/>
<path d="M176.808 27.4309C176.957 27.2288 177.038 26.9842 177.038 26.7331C177.038 26.4819 176.957 26.2374 176.808 26.0353C175.429 24.0331 172.031 18.6386 172.573 14.8973C172.825 13.1582 173.974 11.9558 175.981 11.3171L175.316 9.32031C172.75 10.1362 171.274 11.7841 170.92 14.221C170.243 18.8748 174.044 24.9564 175.6 27.2001C175.938 27.6885 176.497 27.7905 176.824 27.4309" fill="#191411"/>
<path d="M180.763 9.60998C180.227 7.68298 178.031 6.51818 175.841 7.00127C173.651 7.48437 172.309 9.44357 172.841 11.3652C173.372 13.2868 175.578 14.457 177.763 13.9739C179.948 13.4908 181.295 11.5316 180.763 9.60998Z" fill="#191411"/>
<path d="M150.622 47.7695C154.379 61.0008 167.262 75.2198 189.806 75.1929C220.337 75.1446 233 48.6014 233 48.6014C233 48.6014 215.576 61.8059 191.668 25.4721C179.425 6.86235 142.339 18.639 150.611 47.7695" fill="#FAFA08"/>
<mask id="mask0_96_5394" style="mask-type:alpha" maskUnits="userSpaceOnUse" x="149" y="16" width="84" height="60">
<path d="M150.622 47.7695C154.379 61.0008 167.262 75.2198 189.806 75.1929C220.337 75.1446 233 48.6014 233 48.6014C233 48.6014 215.576 61.8059 191.668 25.4721C179.425 6.86235 142.339 18.639 150.611 47.7695" fill="#FFFF66"/>
</mask>
<g mask="url(#mask0_96_5394)">
<path d="M195.905 31.6396C185.74 53.2821 163.678 57.6106 153.918 57.0696C153.918 57.0696 156.092 59.9637 157.509 61.6686C158.906 63.3497 161.376 65.456 161.376 65.456C186.348 63.9411 198.207 46.6992 201.154 38.1324L195.905 31.6396Z" fill="black" stroke="black"/>
<path d="M207.361 42.9116C196.202 66.6775 178.44 72.0637 171.094 71.786C175.334 73.5629 184.764 74.7475 188.948 75.1177C199.884 69.7871 209.965 54.0172 213.498 46.7986C211.043 46.1322 208.384 43.9296 207.361 42.9116Z" fill="black" stroke="black"/>
<path d="M220.551 40.784C216.104 66.6599 200.41 76.5695 193.254 78.2527C197.814 78.8397 207.219 77.4777 211.352 76.7233C220.48 68.6799 226.01 50.7993 227.5 42.9015C224.956 42.911 221.807 41.4938 220.551 40.784Z" fill="black" stroke="black"/>
<circle cx="158.277" cy="30.7315" r="4.56253" fill="black"/>
<ellipse cx="157.472" cy="29.9266" rx="1.07354" ry="1.07354" fill="white"/>
<path d="M155.945 39.5885C155.945 39.5885 151.811 49.5476 145.144 41.1769C145.144 41.1769 150.653 46.2412 155.945 39.5885Z" fill="black"/>
</g>
<path d="M170.697 28.2678C170.795 28.0371 170.817 27.7809 170.758 27.5372C170.699 27.2935 170.562 27.0753 170.37 26.9152C168.577 25.2726 164.052 20.7745 163.741 17.0064C163.596 15.2619 164.444 13.8287 166.258 12.7552L165.158 10.9624C162.844 12.3312 161.776 14.2689 161.975 16.7219C162.366 21.4133 167.428 26.475 169.452 28.3215C169.892 28.7187 170.461 28.6972 170.697 28.2678Z" fill="#191411"/>
<path d="M170.538 10.0129C169.588 8.25768 167.183 7.61891 165.17 8.57973C163.157 9.54054 162.277 11.752 163.227 13.5073C164.177 15.2625 166.587 15.9066 168.594 14.9404C170.602 13.9743 171.482 11.7735 170.532 10.0129" fill="#191411"/>
<path d="M103.892 117.632C103.892 117.973 103.614 118.421 103.06 118.976L102.356 120.064L102.1 121.344L101.524 121.536L101.396 121.92C100.713 122.133 100.222 122.667 99.9236 123.52C99.4543 124.117 98.9423 124.544 98.3876 124.8C98.1743 125.013 97.9823 125.163 97.8116 125.248L97.4916 125.824L96.9156 125.952L95.2516 126.848L93.0756 127.104L92.4996 126.976L91.5396 127.168L91.1556 126.72C90.5583 126.421 90.1316 126.123 89.8756 125.824C89.3636 125.696 88.9796 125.291 88.7236 124.608C87.9983 123.755 87.6356 123.072 87.6356 122.56V122.368L87.1876 121.6L87.0596 121.472L86.6756 120.32L86.0996 119.104L86.2276 117.632L85.5876 116.8L84.6276 111.296C84.4996 110.571 84.4356 109.952 84.4356 109.44L84.3076 109.12L83.9876 108.672L83.4116 109.44L81.1076 111.872L80.2756 113.216L79.8276 114.112L79.1236 115.136L78.6116 115.648L78.6756 115.968L77.7796 117.952L77.2676 118.592L76.6276 118.72L76.0516 119.296C76.0516 120.149 75.6463 120.704 74.8356 120.96L74.7076 121.088C74.3236 122.027 73.8969 122.603 73.4276 122.816L72.8516 123.712C71.9129 124.565 71.2943 125.099 70.9956 125.312C70.8676 125.739 70.6329 126.101 70.2916 126.4C70.2063 126.528 70.0569 126.699 69.8436 126.912C69.7156 127.637 69.1183 128.149 68.0516 128.448L67.3476 128.64C66.4943 128.597 65.7903 128.107 65.2356 127.168L64.2756 125.568L64.5956 124.032L64.4676 123.2L64.5956 123.072L64.6596 122.24L63.9556 120.704L64.4676 119.936L64.2116 119.104L64.6596 118.208L64.7876 116.736L64.5316 116.48L65.0436 115.584L64.8516 115.136L64.7876 114.112L65.0436 112.192C64.9583 111.765 64.9156 111.488 64.9156 111.36C64.9156 111.275 64.9369 111.189 64.9796 111.104C64.9796 110.976 64.9796 110.891 64.9796 110.848L64.6596 110.336L64.8516 108.288L64.7876 107.584L64.9796 106.56L64.7236 104.832L65.8756 102.912C67.1983 103.125 68.1156 103.424 68.6276 103.808C69.1396 104.149 69.3956 104.789 69.3956 105.728V106.304L69.8436 107.072L69.6516 108.416L69.9076 110.976L69.4596 112.192L69.6516 113.536V114.624L69.1396 115.328L69.5236 116.48L69.1396 117.184L69.0756 117.888L69.4596 118.592L68.9476 119.936L68.7556 120.512V121.088L69.0756 121.728L70.1636 120.64C70.1636 120 70.3769 119.573 70.8036 119.36C70.8463 118.933 71.0169 118.613 71.3156 118.4L71.1236 118.208L71.9556 117.44L72.1476 117.184V116.608L73.1716 115.84L73.4276 115.2L74.0036 114.816L76.4996 112C76.2863 112.256 75.5823 113.045 74.3876 114.368V114.496L74.5156 114.048L75.3476 113.088L75.9236 112V111.36L76.8836 111.04L77.0116 110.208L77.2676 109.952L77.3316 109.632V109.184L78.2276 108.288C78.2276 108.203 78.2276 108.096 78.2276 107.968C78.1849 107.84 78.1636 107.755 78.1636 107.712C78.1636 106.944 78.5903 106.517 79.4436 106.432C79.8276 105.664 80.4036 105.216 81.1716 105.088L81.5556 104.512L81.6836 104.384C82.0676 103.829 82.6436 103.445 83.4116 103.232L83.9876 102.528H85.5236L86.2916 103.424L86.9956 103.808L87.0596 104L87.5076 104.128L87.6356 105.472L88.7236 106.112L88.2756 107.52L88.9796 109.056V110.848L89.4916 113.28L89.6196 115.584L90.1956 116.928L90.5796 118.592C90.8356 118.848 91.0276 119.211 91.1556 119.68L92.3076 120V121.28L92.9476 121.984V122.176L93.2036 122.24L93.4596 122.624L93.7156 122.304C93.6303 122.304 93.7369 122.325 94.0356 122.368C94.5049 122.368 94.9956 121.941 95.5076 121.088L96.2756 120.896L96.4676 120.576C96.5956 120.235 96.8516 119.979 97.2356 119.808L97.6836 119.872L97.9396 119.616L98.0036 119.296L98.1956 119.04C98.6223 118.741 98.8996 118.293 99.0276 117.696L99.7316 116.928L99.8596 116.352L100.308 115.328L101.524 114.88L103.252 115.456L103.828 117.312C103.828 117.355 103.849 117.397 103.892 117.44C103.892 117.525 103.892 117.589 103.892 117.632ZM126.095 122.752C126.095 123.264 125.711 123.904 124.943 124.672C124.729 125.355 124.409 125.909 123.983 126.336L123.599 126.4L122.895 127.616L121.743 127.808L120.527 128.576L119.887 129.728L119.183 129.6C118.713 129.813 118.329 129.941 118.031 129.984L117.647 130.56C117.519 130.517 117.327 130.496 117.071 130.496C116.516 130.496 115.983 130.88 115.471 131.648L114.575 130.88C114.404 130.923 114.148 130.944 113.807 130.944C113.252 130.944 112.783 130.859 112.399 130.688H111.311L110.799 130.368C109.177 130.112 108.153 129.493 107.727 128.512V128.32L106.959 127.936L106.575 126.848L105.807 126.336V125.376L105.039 122.56L105.167 120.256L105.423 119.232V117.888L105.743 116.864L105.679 116.416L106.127 115.648L105.999 115.776C105.999 115.392 106.105 114.987 106.319 114.56V114.24L106.127 112.704C106.127 111.979 106.447 111.339 107.087 110.784C107.129 110.699 107.151 110.571 107.151 110.4C107.151 110.229 107.065 109.888 106.895 109.376C106.767 108.821 106.703 108.437 106.703 108.224C106.703 107.712 106.831 107.179 107.087 106.624C107.428 107.136 107.919 107.392 108.559 107.392H108.751C108.836 107.221 109.028 107.029 109.327 106.816C109.668 105.749 110.137 104.853 110.735 104.128L110.991 103.872C110.991 103.701 111.119 103.211 111.375 102.4H111.887L112.015 102.08L112.527 101.952C112.74 101.611 112.868 101.419 112.911 101.376C112.996 101.291 113.465 101.013 114.319 100.544C114.489 100.245 114.745 99.968 115.087 99.712C115.257 99.6267 115.471 99.5413 115.727 99.456L115.983 99.072C117.135 98.688 117.86 98.496 118.159 98.496C118.5 98.496 118.82 98.5813 119.119 98.752L119.439 98.688L119.887 98.944C120.399 99.328 120.911 99.648 121.423 99.904L122.511 100.736V100.992C123.492 101.76 123.983 102.848 123.983 104.256L123.791 104.896L123.983 107.008L123.407 107.392L122.767 109.056L121.551 110.4L121.487 111.424C120.121 112.405 118.863 113.195 117.711 113.792C117.327 114.389 116.729 114.688 115.919 114.688H115.727L114.511 115.456H113.487L111.951 116.096L110.799 115.52H110.671C110.585 115.861 110.5 116.373 110.415 117.056L109.903 117.44L109.839 118.208L109.455 119.296C109.583 120.32 109.647 120.981 109.647 121.28L109.391 121.472C109.391 122.027 109.369 122.432 109.327 122.688C109.327 122.731 109.305 122.795 109.263 122.88C109.263 122.965 109.263 123.029 109.263 123.072C109.263 123.413 109.433 123.691 109.775 123.904C109.903 124.416 110.116 124.736 110.415 124.864L110.863 125.248L112.271 125.632V125.824L112.783 125.952L114.959 126.08L116.239 125.888L116.879 125.44L117.263 125.312L117.903 124.352L118.223 124.288L119.823 123.776C119.993 123.477 120.271 123.221 120.655 123.008L120.847 122.688C121.7 122.517 122.191 122.069 122.319 121.344C122.916 120.747 123.684 120.448 124.623 120.448H124.879C125.689 121.387 126.095 122.155 126.095 122.752ZM119.759 104.32C119.759 104.192 119.695 103.936 119.567 103.552L119.247 103.488L119.119 103.552C119.076 103.552 118.991 103.552 118.863 103.552C118.777 103.595 118.692 103.616 118.607 103.616C118.564 103.616 118.5 103.595 118.415 103.552C118.329 103.552 118.265 103.552 118.223 103.552L117.583 104L117.007 104.064L116.687 104.192L115.599 105.6L114.895 106.112L113.871 107.904L113.295 108.288C113.167 109.013 112.868 109.632 112.399 110.144L112.143 110.592C112.612 110.293 113.145 110.144 113.743 110.144L114.191 109.952L114.383 109.376L115.279 109.44L115.791 108.672H116.175L116.879 108.928L117.199 107.968H117.647V107.264L118.479 107.072L118.671 106.88L118.799 106.304L119.631 105.088C119.716 104.875 119.759 104.619 119.759 104.32ZM153.804 118.016L152.588 119.168L152.524 119.552C152.396 120.32 152.033 120.939 151.436 121.408C150.412 123.328 148.982 124.736 147.148 125.632L146.188 126.4L145.356 126.528L144.332 127.296L143.628 127.36L142.028 128.384L141.004 128.256L139.852 128.768L138.956 128.512L138.508 128.896L137.292 128.704L136.076 128.896L135.628 128.512L134.348 128.256L132.492 126.848L131.468 125.568C130.828 124.757 130.508 124.075 130.508 123.52V123.328L129.868 122.368V121.536C129.74 121.024 129.676 120.555 129.676 120.128V119.68L129.356 118.592L129.676 117.824L129.42 117.312L130.188 116.096L129.996 115.072L130.508 113.408L130.764 113.024L131.02 111.488L130.892 111.232L131.66 110.4L131.788 109.76L132.3 108.288L133.132 106.496L134.284 105.472L134.54 104.896L134.924 104.192L135.052 103.552L136.076 102.336C136.332 102.251 136.63 102.165 136.972 102.08C137.142 101.269 138.209 100.8 140.172 100.672C141.836 101.013 142.902 101.461 143.372 102.016C143.841 102.101 144.204 102.293 144.46 102.592L145.804 102.656L146.7 103.808C146.913 104.235 147.062 104.661 147.148 105.088L147.66 105.6L147.468 106.56C147.51 106.859 147.532 107.328 147.532 107.968L147.852 108.224V109.184L148.108 111.168C147.212 112.064 146.188 112.576 145.036 112.704C144.438 111.595 143.692 110.763 142.796 110.208L142.668 108.096L142.284 107.392V106.88L141.644 106.112L141.324 105.856L140.748 106.048H139.916C139.361 106.176 138.828 106.581 138.316 107.264C137.804 107.947 137.292 108.672 136.78 109.44L136.716 110.08L136.332 110.4V111.552L135.5 112.448L134.476 115.264L134.54 116.032L134.028 117.184L134.22 118.592L133.836 118.784L133.708 120.576L133.772 120.896L134.54 121.664L134.86 123.008L135.756 123.264L135.82 123.776L136.908 123.968L137.74 124.16C138.038 123.989 138.401 123.904 138.828 123.904H139.276C139.788 123.691 140.257 123.584 140.684 123.584C140.982 123.456 141.366 123.328 141.836 123.2C142.348 122.517 143.073 122.176 144.012 122.176H144.396C144.609 122.176 144.758 122.069 144.844 121.856C145.313 121.131 146.06 120.661 147.084 120.448C148.278 119.381 148.961 118.528 149.132 117.888C149.729 117.547 150.113 117.013 150.284 116.288L150.668 116.032L150.86 114.56C152.822 114.859 153.804 115.84 153.804 117.504V118.016ZM177.398 105.024C177.398 105.408 177.014 105.771 176.246 106.112C176.075 106.325 175.755 106.517 175.286 106.688C174.689 106.944 174.262 107.157 174.006 107.328L172.662 106.88C171.979 107.392 171.105 107.648 170.038 107.648L169.27 107.456L168.694 107.968H166.966L165.878 108.672C165.409 108.501 164.961 108.416 164.534 108.416C164.406 108.501 164.107 108.587 163.638 108.672C163.425 108.672 163.19 108.608 162.934 108.48L162.742 110.912L162.806 112.704L162.614 114.944L162.742 117.376L162.934 118.528V119.424L163.83 121.344C163.702 121.472 163.638 121.621 163.638 121.792C163.638 122.091 164.107 122.325 165.046 122.496L165.174 123.264L165.622 123.456L166.39 123.968L166.902 124.352C167.329 124.267 167.627 124.224 167.798 124.224C168.182 124.224 168.566 124.288 168.95 124.416C169.121 124.331 169.483 124.032 170.038 123.52C170.422 123.179 170.785 123.008 171.126 123.008C171.169 123.008 171.233 123.008 171.318 123.008C171.403 123.051 171.467 123.072 171.51 123.072C171.894 122.261 172.577 121.728 173.558 121.472C174.454 121.472 175.201 121.749 175.798 122.304V122.752C175.798 124.203 175.286 125.12 174.262 125.504C173.878 126.4 173.067 126.976 171.83 127.232L171.062 127.936H170.23L168.758 128.32C168.417 128.405 167.926 128.448 167.286 128.448C166.945 128.448 166.582 128.363 166.198 128.192H165.366L163.126 126.976L162.55 126.784L161.206 124.992L160.438 124.16L159.03 120.96L158.518 117.952L158.646 117.184L158.134 116.48L158.454 115.584L158.134 114.176L158.582 113.728L158.71 112.896L158.518 112.128L158.646 110.976L158.39 109.952L158.71 109.632V108.608L158.262 108.416L157.046 108.672L155.894 107.84H155.702C154.422 107.84 153.782 107.157 153.782 105.792V105.6L153.014 104.384L154.23 103.232L155.83 103.488L156.662 103.36L157.878 103.68H159.222V102.4L158.39 100.608L159.222 100.16L158.902 99.2L158.966 97.216L158.454 96.384C158.155 95.9147 158.006 95.488 158.006 95.104C158.006 94.6347 158.113 94.2507 158.326 93.952L158.518 93.056L159.03 92.544C160.182 92.3307 160.95 92.224 161.334 92.224C162.699 92.224 163.446 92.8427 163.574 94.08L163.382 94.4C163.638 94.784 163.766 95.1467 163.766 95.488C163.766 95.5307 163.745 95.6373 163.702 95.808L163.574 96.192L163.51 96.64L163.766 97.472L163.702 97.792L163.83 98.688L163.254 99.456L163.574 100.736L163.318 102.272L163.83 102.848L163.318 104L165.302 103.744L168.822 104.064L171.638 103.616L172.598 103.68L172.918 103.616H175.414C176.737 103.616 177.398 104.085 177.398 105.024ZM205.594 102.08L204.954 102.912L205.466 104.448L204.634 105.408L204.314 106.752L204.122 107.072L204.25 107.392C204.25 107.989 204.101 108.437 203.802 108.736L203.674 108.928V109.184C203.802 109.483 203.866 109.76 203.866 110.016C203.866 110.229 203.845 110.379 203.802 110.464L203.866 110.72L203.61 111.424L203.802 112.192L203.29 112.704L203.482 113.6L203.866 114.048L203.29 114.56V115.584L202.842 116.608L203.162 117.632L202.778 118.144L203.418 118.592L202.522 120.064L202.458 120.256L203.098 120.384L202.65 121.856V122.112C202.65 122.411 202.629 122.645 202.586 122.816L202.65 123.008L203.674 123.136L204.506 124.416L204.058 125.376L204.762 125.312C205.018 125.824 205.167 126.272 205.21 126.656L204.25 127.616C203.951 127.915 203.525 128.213 202.97 128.512L201.882 129.088L201.562 128.768L200.922 129.152L198.938 126.848V125.76C198.682 124.907 198.554 124.117 198.554 123.392V123.008L198.17 119.232L198.682 116.544L198.298 115.008L197.21 116.8L196.634 118.464L196.122 118.72L195.226 120.128L193.626 121.6L193.178 122.368L191.77 123.584L191.45 124.416L189.402 125.696L187.226 128.128L186.01 128.384L185.178 129.024C184.111 128.981 183.301 128.576 182.746 127.808C180.826 126.869 179.823 125.525 179.738 123.776L180.058 123.584L179.994 123.2L179.93 122.432L179.546 121.6L179.93 120.704L180.058 119.36L180.506 117.248C180.506 117.205 180.506 117.12 180.506 116.992C180.463 116.907 180.442 116.821 180.442 116.736C180.442 116.565 180.485 116.352 180.57 116.096C180.527 116.011 180.506 115.84 180.506 115.584C180.506 115.285 180.634 114.795 180.89 114.112L181.338 113.92C181.082 113.707 180.954 113.472 180.954 113.216C180.954 113.045 180.975 112.917 181.018 112.832C180.975 112.704 180.954 112.555 180.954 112.384C180.954 111.872 181.21 111.488 181.722 111.232C181.85 110.805 182.085 110.379 182.426 109.952L182.106 109.44L182.874 108.48V108.224C182.874 107.413 183.151 106.667 183.706 105.984L183.642 104.832L183.898 104.576C183.898 104.533 183.898 104.469 183.898 104.384C183.855 104.299 183.834 104.235 183.834 104.192C183.834 103.936 183.919 103.723 184.09 103.552V103.168C184.261 102.741 184.709 102.101 185.434 101.248C186.159 100.395 186.693 99.648 187.034 99.008L187.354 99.328L188.058 99.008L188.378 98.88L190.49 97.92L195.418 98.176V98.624L196.954 98.944C197.935 98.944 198.575 99.264 198.874 99.904C198.874 99.776 198.895 99.6267 198.938 99.456C198.938 99.328 198.938 99.2427 198.938 99.2L200.282 100.416L201.498 100.672L203.802 100.096L204.634 101.696L205.594 102.08ZM199.514 105.408L199.258 104.96L198.746 104.832L196.762 103.232L195.482 103.04H194.458L194.33 102.912L193.818 103.104L193.242 102.784H191.578L191.77 103.04L190.298 103.552L190.042 103.872L189.85 103.936C189.082 104.576 188.549 105.109 188.25 105.536L187.802 107.072L187.546 107.648L188.186 108.544L187.098 109.376L187.226 109.632C186.757 110.443 186.522 111.232 186.522 112L186.01 112.64V113.792L185.498 114.368L185.37 114.944L185.178 115.072V115.968L184.986 116.288C184.986 116.8 184.943 117.205 184.858 117.504L184.986 117.824L184.41 119.04L184.666 119.424L184.218 120.064L184.666 121.28L183.962 122.176L184.09 123.392V123.584L184.346 123.712L184.666 123.648C184.879 123.435 185.093 123.243 185.306 123.072L185.178 122.56L186.074 122.432L186.266 121.984L190.042 118.912L190.426 118.784L190.874 117.696C191.13 117.611 191.493 117.44 191.962 117.184L192.346 116.16H192.858L192.666 115.072L193.562 114.944C193.647 114.773 193.775 114.56 193.946 114.304C194.159 114.048 194.373 113.813 194.586 113.6L197.85 109.248L198.362 108.288L198.298 108.032L198.746 107.328L198.874 106.624L199.45 106.112L199.514 105.408ZM237.38 104.192L236.868 106.304L234.5 106.624L233.22 107.456L232.388 107.072L231.492 107.584L230.532 107.968L229.892 108.416V108.672L228.548 109.312L227.652 110.464H227.204C226.521 111.189 226.03 111.637 225.732 111.808L224.836 113.28L224.516 113.408C224.388 113.749 224.238 114.261 224.068 114.944L223.172 115.264L222.788 116.032L222.276 116.672L222.148 117.632L221.636 117.824V118.784L221.444 118.976C221.572 119.189 221.721 119.424 221.892 119.68L220.932 120.064L220.804 120.896L220.164 121.984L220.548 122.816L219.716 123.968C219.801 124.395 219.844 124.693 219.844 124.864C219.844 124.907 219.844 124.992 219.844 125.12C219.801 125.248 219.78 125.355 219.78 125.44L219.908 126.016L220.996 127.168L220.164 128.64L219.396 129.216L217.604 130.112L215.236 129.152V127.68L214.98 127.104L215.172 126.144C215.086 125.461 215.044 124.949 215.044 124.608C215.044 124.48 215.065 124.309 215.108 124.096C215.108 123.883 215.108 123.733 215.108 123.648L215.044 123.008C214.745 122.709 214.596 122.368 214.596 121.984C214.596 121.643 214.745 121.259 215.044 120.832C215.044 120.619 215.001 119.979 214.916 118.912L215.108 118.72L214.916 117.888L215.044 117.12L214.916 116.672L215.108 115.2L214.724 114.56L214.98 113.856L214.724 113.024C214.766 112.768 214.788 112.427 214.788 112C214.788 111.36 214.702 110.933 214.532 110.72L214.788 110.336L214.532 109.184L213.956 108.352L214.276 107.328L214.02 106.944L213.764 105.408V104.896C213.55 104.64 213.444 104.32 213.444 103.936C213.444 103.083 214.382 102.357 216.26 101.76L217.86 102.08L218.18 103.296L218.82 104.128L218.628 105.856C218.756 106.709 218.905 107.648 219.076 108.672L219.268 109.696C219.31 109.781 219.353 110.016 219.396 110.4C219.396 110.656 219.289 110.933 219.076 111.232L219.268 112.512L219.14 113.92L218.884 114.56L219.076 114.816L219.204 115.456C219.46 115.157 219.609 114.837 219.652 114.496L219.908 113.536C220.036 113.28 220.228 113.088 220.484 112.96L220.74 112L221.636 111.488L221.764 110.72L222.468 109.952L222.98 108.992C223.534 108.395 224.068 108.011 224.58 107.84L224.708 107.648L225.284 106.752L225.924 106.624L226.116 106.432L226.372 106.048L227.076 105.664L227.46 105.216L227.844 105.28L228.356 105.024L228.612 104.64L229.38 104.256L230.468 103.552L232.004 103.04C232.601 102.955 232.921 102.912 232.964 102.912C232.964 102.955 232.964 102.976 232.964 102.976C232.921 102.976 232.9 102.997 232.9 103.04H232.964C233.134 103.04 233.39 102.955 233.732 102.784C233.945 102.613 234.244 102.528 234.628 102.528C234.798 102.528 235.097 102.571 235.524 102.656C236.633 102.699 237.252 103.211 237.38 104.192Z" fill="#5C61CC"/>
<path d="M50.088 145.632V162H54.84C58.848 162 60.864 159.624 60.864 157.2C60.864 156.048 60.36 154.992 59.448 154.296C58.512 153.552 57.672 153.432 56.904 153.312V153.264C57.864 152.856 59.664 152.016 59.664 149.52C59.664 146.256 56.856 145.632 54.84 145.632H50.088ZM54.552 146.616C55.968 146.616 58.416 146.976 58.416 149.568C58.416 151.824 56.496 152.952 54.552 152.952H51.168V146.616H54.552ZM54.336 153.936C55.944 153.936 59.544 154.104 59.544 157.272C59.544 159.36 57.648 161.016 54.72 161.016H51.168V153.936H54.336ZM67.8114 150.84V162H68.8434V150.84H67.8114ZM68.2914 145.992C67.7154 145.992 67.6674 146.784 67.6674 147.192C67.6674 148.128 67.9074 148.512 68.3394 148.512C68.7714 148.512 68.9874 148.128 68.9874 147.264C68.9874 146.76 68.9154 145.992 68.2914 145.992ZM82.1989 150.96C81.9109 150.84 81.5029 150.696 80.8549 150.696C78.7909 150.696 77.9989 152.256 77.6869 152.952H77.6389V150.84H76.7509V162H77.7829V155.64C77.7829 153.696 78.8869 151.728 80.8789 151.728C81.3829 151.728 81.8149 151.872 82.1989 152.016V150.96ZM95.694 145.632V151.8C94.974 151.296 93.918 150.576 92.406 150.576C89.502 150.576 87.198 153.192 87.198 156.528C87.198 159.888 89.502 162.264 92.142 162.264C93.726 162.264 95.046 161.448 95.814 159.744H95.862V162H96.726V145.632H95.694ZM95.694 157.464C95.694 159.36 94.35 161.328 92.19 161.328C89.886 161.328 88.326 159.072 88.326 156.6C88.326 154.272 89.79 151.512 92.406 151.512C93.87 151.512 95.094 152.4 95.694 152.856V157.464ZM111.252 151.656C110.46 151.2 109.284 150.576 107.604 150.576C105.06 150.576 103.572 152.016 103.572 153.576C103.572 154.512 103.908 154.896 104.268 155.28C105.012 155.952 106.332 156.36 107.508 156.648C110.028 157.272 110.844 157.872 110.844 158.952C110.844 160.344 109.212 161.328 107.484 161.328C105.516 161.328 104.1 160.2 103.548 159.744V161.04C104.292 161.472 105.588 162.264 107.508 162.264C110.124 162.264 111.972 160.752 111.972 158.88C111.972 157.104 110.508 156.408 107.868 155.736C105.756 155.208 104.7 154.728 104.7 153.552C104.7 152.448 105.972 151.512 107.508 151.512C109.26 151.512 110.628 152.472 111.252 152.928V151.656ZM137.873 154.632C137.873 152.088 136.481 150.576 133.937 150.576C132.113 150.576 130.865 151.368 130.241 151.752V152.856C130.793 152.496 132.281 151.512 133.913 151.512C135.305 151.512 136.841 152.544 136.841 154.32V155.064C132.545 155.544 129.353 156.048 129.353 158.904C129.353 160.56 130.817 162.264 133.241 162.264C135.473 162.264 136.361 160.824 136.793 160.056H136.841V160.872C136.841 161.904 137.609 162.168 138.353 162.168C138.905 162.168 139.193 162.024 139.409 161.928V160.872C139.073 161.232 138.569 161.232 138.545 161.232C138.137 161.232 137.873 160.872 137.873 160.32V154.632ZM136.841 157.128C136.841 159.696 135.257 161.328 133.313 161.328C131.633 161.328 130.481 160.176 130.481 158.928C130.481 156.672 133.697 156.24 136.841 155.928V157.128ZM154.314 154.944C154.314 152.424 153.162 150.576 150.546 150.576C147.954 150.576 147.042 152.568 146.802 153.216H146.754V150.84H145.818V162H146.85V156.072C146.85 153.888 148.05 151.512 150.474 151.512C153.282 151.512 153.282 154.632 153.282 155.28V162H154.314V154.944ZM169.775 145.632V151.8C169.055 151.296 167.999 150.576 166.487 150.576C163.583 150.576 161.279 153.192 161.279 156.528C161.279 159.888 163.583 162.264 166.223 162.264C167.807 162.264 169.127 161.448 169.895 159.744H169.943V162H170.807V145.632H169.775ZM169.775 157.464C169.775 159.36 168.431 161.328 166.271 161.328C163.967 161.328 162.407 159.072 162.407 156.6C162.407 154.272 163.871 151.512 166.487 151.512C167.951 151.512 169.175 152.4 169.775 152.856V157.464ZM189.731 145.632V162H190.571L190.763 160.728C191.267 161.232 192.251 162.264 194.171 162.264C197.195 162.264 199.403 159.552 199.403 156.336C199.403 153.24 197.363 150.576 194.435 150.576C192.083 150.576 191.195 152.16 190.811 152.88H190.763V145.632H189.731ZM190.763 156.048C190.763 152.976 192.611 151.512 194.363 151.512C196.427 151.512 198.275 153.576 198.275 156.312C198.275 158.88 196.571 161.328 194.123 161.328C192.515 161.328 191.435 160.344 190.763 159.744V156.048ZM215.411 155.856C215.363 154.896 215.315 153.792 214.475 152.52C213.755 151.416 212.507 150.576 210.803 150.576C207.947 150.576 205.475 153 205.475 156.384C205.475 159.696 207.851 162.264 210.731 162.264C213.035 162.264 214.547 160.896 215.147 160.344V158.952C214.547 159.6 212.939 161.328 210.899 161.328C209.531 161.328 208.067 160.488 207.251 159.024C206.579 157.824 206.579 156.768 206.603 155.856H215.411ZM206.747 154.968C207.395 153.12 208.595 151.512 210.683 151.512C212.267 151.512 213.923 152.688 214.115 154.968H206.747ZM231.221 155.856C231.173 154.896 231.125 153.792 230.285 152.52C229.565 151.416 228.317 150.576 226.613 150.576C223.757 150.576 221.285 153 221.285 156.384C221.285 159.696 223.661 162.264 226.541 162.264C228.845 162.264 230.357 160.896 230.957 160.344V158.952C230.357 159.6 228.749 161.328 226.709 161.328C225.341 161.328 223.877 160.488 223.061 159.024C222.389 157.824 222.389 156.768 222.413 155.856H231.221ZM222.557 154.968C223.205 153.12 224.405 151.512 226.493 151.512C228.077 151.512 229.733 152.688 229.925 154.968H222.557ZM244.823 151.656C244.031 151.2 242.855 150.576 241.175 150.576C238.631 150.576 237.143 152.016 237.143 153.576C237.143 154.512 237.479 154.896 237.839 155.28C238.583 155.952 239.903 156.36 241.079 156.648C243.599 157.272 244.415 157.872 244.415 158.952C244.415 160.344 242.783 161.328 241.055 161.328C239.087 161.328 237.671 160.2 237.119 159.744V161.04C237.863 161.472 239.159 162.264 241.079 162.264C243.695 162.264 245.543 160.752 245.543 158.88C245.543 157.104 244.079 156.408 241.439 155.736C239.327 155.208 238.271 154.728 238.271 153.552C238.271 152.448 239.543 151.512 241.079 151.512C242.831 151.512 244.199 152.472 244.823 152.928V151.656Z" fill="#5E5DD5"/>
</svg>
