<svg width="266" height="118" viewBox="0 0 266 118" fill="none" xmlns="http://www.w3.org/2000/svg">
<path d="M132.577 21.7974C134.115 20.2208 137.455 21.3803 137.455 23.7264C137.455 27.0985 131.407 31.1818 131.407 31.1818C131.407 31.1818 125.364 27.0985 125.364 23.7181C125.364 21.4241 128.397 20.0644 130.157 21.7578C130.632 22.2003 131.053 22.7034 131.407 23.2551C131.737 22.7197 132.13 22.2293 132.577 21.7953" fill="#FF7979"/>
<path d="M122.395 9.07008C123.933 7.49348 127.273 8.65298 127.273 10.9991C127.273 14.3713 121.225 18.4545 121.225 18.4545C121.225 18.4545 115.182 14.3713 115.182 10.9908C115.182 8.69678 118.216 7.33709 119.975 9.03049C120.451 9.47309 120.871 9.97608 121.225 10.5278C121.555 9.99248 121.948 9.50198 122.395 9.06798" fill="#FF7979"/>
<path d="M141.486 0.79738C143.024 -0.77922 146.364 0.380277 146.364 2.72638C146.364 6.09848 140.316 10.1818 140.316 10.1818C140.316 10.1818 134.273 6.09848 134.273 2.71808C134.273 0.42408 137.307 -0.93562 139.066 0.75778C139.542 1.20028 139.962 1.70338 140.316 2.25508C140.646 1.71968 141.039 1.22928 141.486 0.795278" fill="#FF7979"/>
<path d="M128.503 61.105L129.645 73.191L135.978 66.522L128.503 61.105Z" fill="#FFF100"/>
<path d="M128.898 74.7461C123.018 95.4491 102.861 117.697 67.586 117.655C19.8129 117.58 0 76.0471 0 76.0471C0 76.0471 27.2627 96.7091 64.671 39.8571C83.829 10.7379 141.865 29.165 128.923 74.7461" fill="#F1B1E0"/>
<path d="M75.4309 55.099C79.4809 62.709 73.9259 72.895 60.8059 75.845C54.4719 77.683 41.9859 74.735 33.5339 69.638C24.6859 64.826 19.8468 57.861 19.8115 58.136C25.2274 58.079 30.6119 57.307 35.8259 55.84C43.7929 53.824 51.1009 49.786 54.6669 48.524C64.3949 45.074 71.8189 48.247 75.4279 55.115" fill="#8185DB"/>
<path d="M119.65 51.3799C119.65 51.3799 113.57 64.7509 104.23 53.3279C104.23 53.3279 111.982 60.2659 119.65 51.3799Z" fill="#424455"/>
<path d="M205.268 55.561C204.429 53.999 205.436 51.421 205.999 50.052C207.269 47.133 208.777 44.324 210.509 41.653C215.414 33.6152 220.697 25.2331 228.911 20.4877C232.38 18.4888 236.781 17.5061 240.527 19.6478C246.213 22.8478 246.515 30.8183 244.147 36.0592C243.209 38.2343 241.911 40.236 240.309 41.98C237.646 44.668 234.245 46.339 230.868 47.902C227.298 49.664 223.59 51.133 219.782 52.294C217.422 52.949 215.036 53.495 212.651 54.024C211.962 54.176 205.436 55.914 205.268 55.603" fill="#F1B1E0"/>
<path d="M211.148 56.317C207.587 56.771 204.622 51.144 203.11 48.649C200.219 43.61 197.822 38.3019 195.954 32.8005C193.703 26.5517 192.872 19.1019 195.022 12.9455C197.634 5.47894 204.857 -1.08056 213.222 1.83384C215.33 2.53484 217.253 3.70023 218.849 5.24383C222.856 9.66163 223.318 15.8851 222.915 21.4536C222.377 28.9118 219.95 35.5385 217.388 42.4C216.506 44.744 215.582 47.062 214.558 49.329C214.028 50.514 213.466 51.681 212.878 52.849C212.651 53.311 211.534 56.292 211.097 56.351" fill="#F1B1E0"/>
<path d="M178.081 42.921C178.315 42.605 178.44 42.222 178.44 41.829C178.44 41.436 178.315 41.054 178.081 40.737C175.923 37.6046 170.606 29.1638 171.455 23.3098C171.849 20.5885 173.647 18.7072 176.788 17.7077L175.746 14.5833C171.732 15.8599 169.422 18.4384 168.868 22.2515C167.81 29.5333 173.756 39.049 176.192 42.56C176.721 43.324 177.594 43.484 178.107 42.921" fill="#191411"/>
<path d="M184.271 15.0369C183.431 12.0217 179.996 10.1991 176.57 10.955C173.143 11.7109 171.043 14.7765 171.875 17.7833C172.706 20.7901 176.158 22.6211 179.576 21.8652C182.995 21.1093 185.103 18.0437 184.271 15.0369Z" fill="#191411"/>
<path d="M137.102 74.7461C142.982 95.4491 163.139 117.697 198.414 117.655C246.187 117.58 266 76.0471 266 76.0471C266 76.0471 238.737 96.7091 201.329 39.8571C182.171 10.7379 124.143 29.165 137.086 74.7461" fill="#FAFA08"/>
<mask id="mask0_28_102" style="mask-type:alpha" maskUnits="userSpaceOnUse" x="135" y="25" width="131" height="93">
<path d="M137.102 74.7461C142.982 95.4491 163.139 117.697 198.414 117.655C246.187 117.58 266 76.0471 266 76.0471C266 76.0471 238.737 96.7091 201.329 39.8571C182.171 10.7379 124.143 29.165 137.086 74.7461" fill="#FFFF66"/>
</mask>
<g mask="url(#mask0_28_102)">
<path d="M207.957 49.5071C192.051 83.3711 157.531 90.1441 142.259 89.2981C142.259 89.2981 145.661 93.8261 147.878 96.4941C150.065 99.1241 153.929 102.42 153.929 102.42C193.002 100.049 211.559 73.0711 216.169 59.6661L207.957 49.5071Z" fill="black" stroke="black"/>
<path d="M225.883 67.145C208.423 104.331 180.631 112.759 169.136 112.325C175.771 115.105 190.525 116.959 197.073 117.538C214.185 109.197 229.958 84.522 235.487 73.227C231.646 72.184 227.484 68.738 225.883 67.145Z" fill="black" stroke="black"/>
<path d="M246.523 63.8162C239.564 104.304 215.008 119.81 203.811 122.443C210.946 123.362 225.663 121.231 232.129 120.05C246.412 107.465 255.065 79.4872 257.397 67.1292C253.416 67.1442 248.489 64.9262 246.523 63.8162Z" fill="black" stroke="black"/>
<path d="M149.08 55.2251C153.023 55.2251 156.219 52.0288 156.219 48.0861C156.219 44.1433 153.023 40.947 149.08 40.947C145.138 40.947 141.941 44.1433 141.941 48.0861C141.941 52.0288 145.138 55.2251 149.08 55.2251Z" fill="black"/>
<path d="M147.82 48.5068C148.748 48.5068 149.5 47.7547 149.5 46.827C149.5 45.8993 148.748 45.1472 147.82 45.1472C146.893 45.1472 146.141 45.8993 146.141 46.827C146.141 47.7547 146.893 48.5068 147.82 48.5068Z" fill="white"/>
<path d="M145.432 61.9451C145.432 61.9451 138.965 77.5281 128.533 64.4301C128.533 64.4301 137.152 72.3541 145.432 61.9451Z" fill="black"/>
<path d="M168.515 44.2309C168.669 43.8699 168.702 43.4689 168.61 43.0879C168.517 42.7069 168.305 42.3649 168.003 42.1149C165.197 39.5449 158.117 32.5064 157.63 26.6104C157.403 23.8808 158.73 21.6383 161.569 19.9585L159.847 17.1533C156.227 19.295 154.556 22.327 154.867 26.1653C155.48 33.5059 163.4 41.4259 166.566 44.3149C167.255 44.9369 168.145 44.9029 168.515 44.2309Z" fill="#191411"/>
</g>
</svg>
